{
	"patcher" : 	{
		"fileversion" : 1,
		"rect" : [ 581.0, 558.0, 85.0, 111.0 ],
		"bgcolor" : [ 1.0, 1.0, 1.0, 0.0 ],
		"bglocked" : 0,
		"defrect" : [ 252.0, 89.0, 1297.0, 629.0 ],
		"openrect" : [ 0.0, 0.0, 0.0, 0.0 ],
		"openinpresentation" : 1,
		"default_fontsize" : 12.0,
		"default_fontface" : 0,
		"default_fontname" : "Arial",
		"gridonopen" : 0,
		"gridsize" : [ 15.0, 15.0 ],
		"gridsnaponopen" : 0,
		"toolbarvisible" : 1,
		"boxanimatetime" : 200,
		"imprint" : 0,
		"enablehscroll" : 1,
		"enablevscroll" : 1,
		"devicewidth" : 0.0,
		"boxes" : [ 			{
				"box" : 				{
					"maxclass" : "newobj",
					"text" : "p deleteGroupsButtons",
					"patching_rect" : [ 304.0, 286.0, 133.0, 20.0 ],
					"fontname" : "Arial",
					"numinlets" : 1,
					"id" : "obj-4",
					"numoutlets" : 0,
					"fontsize" : 12.0,
					"color" : [ 0.843137, 0.741176, 0.431373, 1.0 ],
					"patcher" : 					{
						"fileversion" : 1,
						"rect" : [ 799.0, 240.0, 640.0, 480.0 ],
						"bglocked" : 0,
						"defrect" : [ 799.0, 240.0, 640.0, 480.0 ],
						"openrect" : [ 0.0, 0.0, 0.0, 0.0 ],
						"openinpresentation" : 0,
						"default_fontsize" : 12.0,
						"default_fontface" : 0,
						"default_fontname" : "Arial",
						"gridonopen" : 0,
						"gridsize" : [ 15.0, 15.0 ],
						"gridsnaponopen" : 0,
						"toolbarvisible" : 1,
						"boxanimatetime" : 200,
						"imprint" : 0,
						"enablehscroll" : 1,
						"enablevscroll" : 1,
						"devicewidth" : 0.0,
						"visible" : 1,
						"boxes" : [ 							{
								"box" : 								{
									"maxclass" : "newobj",
									"text" : "s buttonEdited",
									"patching_rect" : [ 77.0, 289.0, 87.0, 20.0 ],
									"fontname" : "Arial",
									"numinlets" : 1,
									"id" : "obj-18",
									"numoutlets" : 0,
									"fontsize" : 12.0
								}

							}
, 							{
								"box" : 								{
									"maxclass" : "newobj",
									"text" : "append 0",
									"outlettype" : [ "" ],
									"patching_rect" : [ 90.0, 210.0, 61.0, 20.0 ],
									"fontname" : "Arial",
									"numinlets" : 1,
									"id" : "obj-14",
									"numoutlets" : 1,
									"fontsize" : 12.0
								}

							}
, 							{
								"box" : 								{
									"maxclass" : "newobj",
									"text" : "tosymbol",
									"outlettype" : [ "" ],
									"patching_rect" : [ 90.0, 186.0, 59.0, 20.0 ],
									"fontname" : "Arial",
									"numinlets" : 1,
									"id" : "obj-13",
									"numoutlets" : 1,
									"fontsize" : 12.0
								}

							}
, 							{
								"box" : 								{
									"maxclass" : "newobj",
									"text" : "prepend store",
									"outlettype" : [ "" ],
									"patching_rect" : [ 90.0, 235.0, 85.0, 20.0 ],
									"fontname" : "Arial",
									"numinlets" : 1,
									"id" : "obj-7",
									"numoutlets" : 1,
									"fontsize" : 12.0
								}

							}
, 							{
								"box" : 								{
									"maxclass" : "newobj",
									"text" : "grab 1 buttonExistance",
									"outlettype" : [ "" ],
									"patching_rect" : [ 90.0, 260.0, 133.0, 20.0 ],
									"fontname" : "Arial",
									"numinlets" : 1,
									"id" : "obj-6",
									"numoutlets" : 1,
									"fontsize" : 12.0
								}

							}
, 							{
								"box" : 								{
									"maxclass" : "newobj",
									"text" : "- 1",
									"outlettype" : [ "int" ],
									"patching_rect" : [ 90.0, 135.0, 32.5, 20.0 ],
									"fontname" : "Arial",
									"numinlets" : 2,
									"id" : "obj-5",
									"numoutlets" : 1,
									"fontsize" : 12.0
								}

							}
, 							{
								"box" : 								{
									"maxclass" : "newobj",
									"text" : "uzi 8",
									"outlettype" : [ "bang", "bang", "int" ],
									"patching_rect" : [ 63.0, 108.0, 46.0, 20.0 ],
									"fontname" : "Arial",
									"numinlets" : 2,
									"id" : "obj-4",
									"numoutlets" : 3,
									"fontsize" : 12.0
								}

							}
, 							{
								"box" : 								{
									"maxclass" : "newobj",
									"text" : "zl join",
									"outlettype" : [ "", "" ],
									"patching_rect" : [ 90.0, 161.0, 41.0, 20.0 ],
									"fontname" : "Arial",
									"numinlets" : 2,
									"id" : "obj-3",
									"numoutlets" : 2,
									"fontsize" : 12.0
								}

							}
, 							{
								"box" : 								{
									"maxclass" : "newobj",
									"text" : "t b b",
									"outlettype" : [ "bang", "bang" ],
									"patching_rect" : [ 63.0, 52.0, 34.0, 20.0 ],
									"fontname" : "Arial",
									"numinlets" : 1,
									"id" : "obj-2",
									"numoutlets" : 2,
									"fontsize" : 12.0
								}

							}
, 							{
								"box" : 								{
									"maxclass" : "newobj",
									"text" : "grab 1 selectedGroup",
									"outlettype" : [ "" ],
									"patching_rect" : [ 79.0, 78.0, 126.0, 20.0 ],
									"fontname" : "Arial",
									"numinlets" : 1,
									"id" : "obj-12",
									"numoutlets" : 1,
									"fontsize" : 12.0
								}

							}
, 							{
								"box" : 								{
									"maxclass" : "inlet",
									"outlettype" : [ "bang" ],
									"patching_rect" : [ 63.0, 18.0, 25.0, 25.0 ],
									"numinlets" : 0,
									"id" : "obj-1",
									"numoutlets" : 1,
									"comment" : ""
								}

							}
 ],
						"lines" : [ 							{
								"patchline" : 								{
									"source" : [ "obj-4", 1 ],
									"destination" : [ "obj-18", 0 ],
									"hidden" : 0,
									"midpoints" : [  ]
								}

							}
, 							{
								"patchline" : 								{
									"source" : [ "obj-7", 0 ],
									"destination" : [ "obj-6", 0 ],
									"hidden" : 0,
									"midpoints" : [  ]
								}

							}
, 							{
								"patchline" : 								{
									"source" : [ "obj-14", 0 ],
									"destination" : [ "obj-7", 0 ],
									"hidden" : 0,
									"midpoints" : [  ]
								}

							}
, 							{
								"patchline" : 								{
									"source" : [ "obj-13", 0 ],
									"destination" : [ "obj-14", 0 ],
									"hidden" : 0,
									"midpoints" : [  ]
								}

							}
, 							{
								"patchline" : 								{
									"source" : [ "obj-3", 0 ],
									"destination" : [ "obj-13", 0 ],
									"hidden" : 0,
									"midpoints" : [  ]
								}

							}
, 							{
								"patchline" : 								{
									"source" : [ "obj-5", 0 ],
									"destination" : [ "obj-3", 0 ],
									"hidden" : 0,
									"midpoints" : [  ]
								}

							}
, 							{
								"patchline" : 								{
									"source" : [ "obj-4", 2 ],
									"destination" : [ "obj-5", 0 ],
									"hidden" : 0,
									"midpoints" : [  ]
								}

							}
, 							{
								"patchline" : 								{
									"source" : [ "obj-2", 0 ],
									"destination" : [ "obj-4", 0 ],
									"hidden" : 0,
									"midpoints" : [  ]
								}

							}
, 							{
								"patchline" : 								{
									"source" : [ "obj-12", 0 ],
									"destination" : [ "obj-3", 1 ],
									"hidden" : 0,
									"midpoints" : [  ]
								}

							}
, 							{
								"patchline" : 								{
									"source" : [ "obj-2", 1 ],
									"destination" : [ "obj-12", 0 ],
									"hidden" : 0,
									"midpoints" : [  ]
								}

							}
, 							{
								"patchline" : 								{
									"source" : [ "obj-1", 0 ],
									"destination" : [ "obj-2", 0 ],
									"hidden" : 0,
									"midpoints" : [  ]
								}

							}
 ]
					}
,
					"saved_object_attributes" : 					{
						"globalpatchername" : "",
						"default_fontname" : "Arial",
						"default_fontsize" : 12.0,
						"fontname" : "Arial",
						"fontface" : 0,
						"default_fontface" : 0,
						"fontsize" : 12.0
					}

				}

			}
, 			{
				"box" : 				{
					"maxclass" : "newobj",
					"text" : "s groupEdited",
					"patching_rect" : [ 277.0, 334.0, 85.0, 20.0 ],
					"fontname" : "Arial",
					"numinlets" : 1,
					"id" : "obj-1",
					"numoutlets" : 0,
					"fontsize" : 12.0
				}

			}
, 			{
				"box" : 				{
					"maxclass" : "newobj",
					"text" : "p deleteGroupExistance",
					"patching_rect" : [ 318.0, 261.0, 139.0, 20.0 ],
					"fontname" : "Arial",
					"numinlets" : 1,
					"id" : "obj-13",
					"numoutlets" : 0,
					"fontsize" : 12.0,
					"color" : [ 0.843137, 0.741176, 0.431373, 1.0 ],
					"patcher" : 					{
						"fileversion" : 1,
						"rect" : [ 58.0, 100.0, 640.0, 480.0 ],
						"bglocked" : 0,
						"defrect" : [ 58.0, 100.0, 640.0, 480.0 ],
						"openrect" : [ 0.0, 0.0, 0.0, 0.0 ],
						"openinpresentation" : 0,
						"default_fontsize" : 12.0,
						"default_fontface" : 0,
						"default_fontname" : "Arial",
						"gridonopen" : 0,
						"gridsize" : [ 15.0, 15.0 ],
						"gridsnaponopen" : 0,
						"toolbarvisible" : 1,
						"boxanimatetime" : 200,
						"imprint" : 0,
						"enablehscroll" : 1,
						"enablevscroll" : 1,
						"devicewidth" : 0.0,
						"boxes" : [ 							{
								"box" : 								{
									"maxclass" : "newobj",
									"text" : "grab 1 selectedGroup",
									"outlettype" : [ "" ],
									"patching_rect" : [ 50.0, 100.0, 126.0, 20.0 ],
									"fontname" : "Arial",
									"numinlets" : 1,
									"id" : "obj-12",
									"numoutlets" : 1,
									"fontsize" : 12.0
								}

							}
, 							{
								"box" : 								{
									"maxclass" : "newobj",
									"text" : "grab 1 groupExistance",
									"outlettype" : [ "" ],
									"patching_rect" : [ 50.0, 155.0, 131.0, 20.0 ],
									"fontname" : "Arial",
									"numinlets" : 1,
									"id" : "obj-30",
									"numoutlets" : 1,
									"fontsize" : 12.0
								}

							}
, 							{
								"box" : 								{
									"maxclass" : "newobj",
									"text" : "append 0",
									"outlettype" : [ "" ],
									"patching_rect" : [ 50.0, 128.0, 61.0, 20.0 ],
									"fontname" : "Arial",
									"numinlets" : 1,
									"id" : "obj-28",
									"numoutlets" : 1,
									"fontsize" : 12.0
								}

							}
, 							{
								"box" : 								{
									"maxclass" : "inlet",
									"outlettype" : [ "bang" ],
									"patching_rect" : [ 50.0, 40.0, 25.0, 25.0 ],
									"presentation" : 1,
									"numinlets" : 0,
									"id" : "obj-11",
									"presentation_rect" : [ 304.0, 202.0, 25.0, 25.0 ],
									"numoutlets" : 1,
									"comment" : ""
								}

							}
 ],
						"lines" : [ 							{
								"patchline" : 								{
									"source" : [ "obj-28", 0 ],
									"destination" : [ "obj-30", 0 ],
									"hidden" : 0,
									"midpoints" : [  ]
								}

							}
, 							{
								"patchline" : 								{
									"source" : [ "obj-12", 0 ],
									"destination" : [ "obj-28", 0 ],
									"hidden" : 0,
									"midpoints" : [  ]
								}

							}
, 							{
								"patchline" : 								{
									"source" : [ "obj-11", 0 ],
									"destination" : [ "obj-12", 0 ],
									"hidden" : 0,
									"midpoints" : [  ]
								}

							}
 ]
					}
,
					"saved_object_attributes" : 					{
						"globalpatchername" : "",
						"default_fontname" : "Arial",
						"default_fontsize" : 12.0,
						"fontname" : "Arial",
						"fontface" : 0,
						"default_fontface" : 0,
						"fontsize" : 12.0
					}

				}

			}
, 			{
				"box" : 				{
					"maxclass" : "newobj",
					"text" : "p deleteGroupColor",
					"patching_rect" : [ 583.0, 231.0, 115.0, 20.0 ],
					"fontname" : "Arial",
					"numinlets" : 1,
					"id" : "obj-10",
					"numoutlets" : 0,
					"fontsize" : 12.0,
					"color" : [ 0.843137, 0.741176, 0.431373, 1.0 ],
					"patcher" : 					{
						"fileversion" : 1,
						"rect" : [ 0.0, 0.0, 640.0, 480.0 ],
						"bglocked" : 0,
						"defrect" : [ 0.0, 0.0, 640.0, 480.0 ],
						"openrect" : [ 0.0, 0.0, 0.0, 0.0 ],
						"openinpresentation" : 0,
						"default_fontsize" : 12.0,
						"default_fontface" : 0,
						"default_fontname" : "Arial",
						"gridonopen" : 0,
						"gridsize" : [ 15.0, 15.0 ],
						"gridsnaponopen" : 0,
						"toolbarvisible" : 1,
						"boxanimatetime" : 200,
						"imprint" : 0,
						"enablehscroll" : 1,
						"enablevscroll" : 1,
						"devicewidth" : 0.0,
						"boxes" : [ 							{
								"box" : 								{
									"maxclass" : "newobj",
									"text" : "t b i",
									"outlettype" : [ "bang", "int" ],
									"patching_rect" : [ 50.0, 100.0, 54.5, 20.0 ],
									"fontname" : "Arial",
									"numinlets" : 1,
									"id" : "obj-4",
									"numoutlets" : 2,
									"fontsize" : 12.0
								}

							}
, 							{
								"box" : 								{
									"maxclass" : "message",
									"text" : "0.26 0.26 0.26",
									"outlettype" : [ "" ],
									"patching_rect" : [ 50.0, 146.0, 87.0, 18.0 ],
									"fontname" : "Arial",
									"numinlets" : 2,
									"id" : "obj-21",
									"numoutlets" : 1,
									"fontsize" : 12.0
								}

							}
, 							{
								"box" : 								{
									"maxclass" : "newobj",
									"text" : "prepend set",
									"outlettype" : [ "" ],
									"patching_rect" : [ 86.0, 124.0, 74.0, 20.0 ],
									"fontname" : "Arial",
									"numinlets" : 1,
									"id" : "obj-18",
									"numoutlets" : 1,
									"fontsize" : 12.0
								}

							}
, 							{
								"box" : 								{
									"maxclass" : "newobj",
									"text" : "prepend",
									"outlettype" : [ "" ],
									"patching_rect" : [ 50.0, 179.0, 55.0, 20.0 ],
									"fontname" : "Arial",
									"numinlets" : 1,
									"id" : "obj-17",
									"numoutlets" : 1,
									"fontsize" : 12.0
								}

							}
, 							{
								"box" : 								{
									"maxclass" : "newobj",
									"text" : "grab 1 groupColors",
									"outlettype" : [ "" ],
									"patching_rect" : [ 50.0, 208.0, 113.0, 20.0 ],
									"fontname" : "Arial",
									"numinlets" : 1,
									"id" : "obj-1",
									"numoutlets" : 1,
									"fontsize" : 12.0
								}

							}
, 							{
								"box" : 								{
									"maxclass" : "inlet",
									"outlettype" : [ "int" ],
									"patching_rect" : [ 50.0, 40.0, 25.0, 25.0 ],
									"presentation" : 1,
									"numinlets" : 0,
									"id" : "obj-9",
									"presentation_rect" : [ 583.0, 171.0, 25.0, 25.0 ],
									"numoutlets" : 1,
									"comment" : ""
								}

							}
 ],
						"lines" : [ 							{
								"patchline" : 								{
									"source" : [ "obj-9", 0 ],
									"destination" : [ "obj-4", 0 ],
									"hidden" : 0,
									"midpoints" : [  ]
								}

							}
, 							{
								"patchline" : 								{
									"source" : [ "obj-4", 1 ],
									"destination" : [ "obj-18", 0 ],
									"hidden" : 0,
									"midpoints" : [  ]
								}

							}
, 							{
								"patchline" : 								{
									"source" : [ "obj-4", 0 ],
									"destination" : [ "obj-21", 0 ],
									"hidden" : 0,
									"midpoints" : [  ]
								}

							}
, 							{
								"patchline" : 								{
									"source" : [ "obj-17", 0 ],
									"destination" : [ "obj-1", 0 ],
									"hidden" : 0,
									"midpoints" : [  ]
								}

							}
, 							{
								"patchline" : 								{
									"source" : [ "obj-21", 0 ],
									"destination" : [ "obj-17", 0 ],
									"hidden" : 0,
									"midpoints" : [  ]
								}

							}
, 							{
								"patchline" : 								{
									"source" : [ "obj-18", 0 ],
									"destination" : [ "obj-17", 0 ],
									"hidden" : 0,
									"midpoints" : [  ]
								}

							}
 ]
					}
,
					"saved_object_attributes" : 					{
						"globalpatchername" : "",
						"default_fontname" : "Arial",
						"default_fontsize" : 12.0,
						"fontname" : "Arial",
						"fontface" : 0,
						"default_fontface" : 0,
						"fontsize" : 12.0
					}

				}

			}
, 			{
				"box" : 				{
					"maxclass" : "newobj",
					"text" : "s hide_edit_group_button",
					"patching_rect" : [ 291.0, 310.0, 146.0, 20.0 ],
					"fontname" : "Arial",
					"numinlets" : 1,
					"id" : "obj-31",
					"numoutlets" : 0,
					"fontsize" : 12.0
				}

			}
, 			{
				"box" : 				{
					"maxclass" : "newobj",
					"text" : "s showButtonPopup",
					"patching_rect" : [ 32.0, 184.0, 117.0, 20.0 ],
					"fontname" : "Arial",
					"numinlets" : 1,
					"id" : "obj-25",
					"numoutlets" : 0,
					"fontsize" : 12.0
				}

			}
, 			{
				"box" : 				{
					"maxclass" : "newobj",
					"text" : "s hide_edit_group_button",
					"patching_rect" : [ 17.0, 234.0, 146.0, 20.0 ],
					"fontname" : "Arial",
					"numinlets" : 1,
					"id" : "obj-19",
					"numoutlets" : 0,
					"fontsize" : 12.0
				}

			}
, 			{
				"box" : 				{
					"maxclass" : "panel",
					"patching_rect" : [ 480.0, 42.0, 128.0, 128.0 ],
					"bgcolor" : [ 0.258824, 0.258824, 0.258824, 1.0 ],
					"numinlets" : 1,
					"id" : "obj-27",
					"numoutlets" : 0
				}

			}
, 			{
				"box" : 				{
					"maxclass" : "newobj",
					"text" : "t b b",
					"outlettype" : [ "bang", "bang" ],
					"patching_rect" : [ 17.0, 157.0, 34.0, 20.0 ],
					"fontname" : "Arial",
					"numinlets" : 1,
					"id" : "obj-8",
					"numoutlets" : 2,
					"fontsize" : 12.0
				}

			}
, 			{
				"box" : 				{
					"maxclass" : "newobj",
					"text" : "t b b b b",
					"outlettype" : [ "bang", "bang", "bang", "bang" ],
					"patching_rect" : [ 277.0, 237.0, 59.5, 20.0 ],
					"fontname" : "Arial",
					"numinlets" : 1,
					"id" : "obj-14",
					"numoutlets" : 4,
					"fontsize" : 12.0
				}

			}
, 			{
				"box" : 				{
					"maxclass" : "newobj",
					"text" : "t b i",
					"outlettype" : [ "bang", "int" ],
					"patching_rect" : [ 277.0, 203.0, 324.5, 20.0 ],
					"fontname" : "Arial",
					"numinlets" : 1,
					"id" : "obj-7",
					"numoutlets" : 2,
					"fontsize" : 12.0
				}

			}
, 			{
				"box" : 				{
					"maxclass" : "newobj",
					"text" : "s hide_edit_group_button",
					"patching_rect" : [ 256.0, 364.0, 146.0, 20.0 ],
					"fontname" : "Arial",
					"numinlets" : 1,
					"id" : "obj-36",
					"numoutlets" : 0,
					"fontsize" : 12.0
				}

			}
, 			{
				"box" : 				{
					"maxclass" : "newobj",
					"text" : "sel -1",
					"outlettype" : [ "bang", "" ],
					"patching_rect" : [ 256.0, 176.0, 40.0, 20.0 ],
					"fontname" : "Arial",
					"numinlets" : 2,
					"id" : "obj-6",
					"numoutlets" : 2,
					"fontsize" : 12.0
				}

			}
, 			{
				"box" : 				{
					"maxclass" : "newobj",
					"text" : "grab 1 selectedGroup",
					"outlettype" : [ "" ],
					"patching_rect" : [ 256.0, 151.0, 126.0, 20.0 ],
					"fontname" : "Arial",
					"numinlets" : 1,
					"id" : "obj-20",
					"numoutlets" : 1,
					"fontsize" : 12.0
				}

			}
, 			{
				"box" : 				{
					"maxclass" : "newobj",
					"text" : "sel 0",
					"outlettype" : [ "bang", "" ],
					"patching_rect" : [ 256.0, 128.0, 36.0, 20.0 ],
					"fontname" : "Arial",
					"numinlets" : 2,
					"id" : "obj-5",
					"numoutlets" : 2,
					"fontsize" : 12.0
				}

			}
, 			{
				"box" : 				{
					"maxclass" : "comment",
					"text" : "Remove Group",
					"patching_rect" : [ 264.0, 20.0, 150.0, 20.0 ],
					"presentation" : 1,
					"fontname" : "Arial",
					"numinlets" : 1,
					"id" : "obj-3",
					"presentation_rect" : [ -3.0, 13.0, 100.0, 20.0 ],
					"numoutlets" : 0,
					"fontsize" : 12.0
				}

			}
, 			{
				"box" : 				{
					"maxclass" : "comment",
					"text" : "Edit Group",
					"patching_rect" : [ 18.0, 56.0, 150.0, 20.0 ],
					"presentation" : 1,
					"fontname" : "Arial",
					"numinlets" : 1,
					"id" : "obj-2",
					"presentation_rect" : [ 10.0, 74.0, 66.0, 20.0 ],
					"numoutlets" : 0,
					"fontsize" : 12.0
				}

			}
, 			{
				"box" : 				{
					"maxclass" : "pictctrl",
					"outlettype" : [ "int" ],
					"snap" : 1,
					"name" : "PSC-D.png",
					"patching_rect" : [ 17.0, 84.0, 85.0, 52.0 ],
					"presentation" : 1,
					"numinlets" : 1,
					"id" : "obj-32",
					"presentation_rect" : [ 0.0, 59.0, 85.0, 52.0 ],
					"clickedimage" : 1,
					"numoutlets" : 1
				}

			}
, 			{
				"box" : 				{
					"maxclass" : "pictctrl",
					"outlettype" : [ "int" ],
					"snap" : 1,
					"name" : "PSC-D.png",
					"patching_rect" : [ 256.0, 53.0, 85.0, 52.0 ],
					"presentation" : 1,
					"numinlets" : 1,
					"id" : "obj-29",
					"presentation_rect" : [ 0.0, 0.0, 85.0, 52.0 ],
					"clickedimage" : 1,
					"numoutlets" : 1
				}

			}
 ],
		"lines" : [ 			{
				"patchline" : 				{
					"source" : [ "obj-14", 2 ],
					"destination" : [ "obj-4", 0 ],
					"hidden" : 0,
					"midpoints" : [  ]
				}

			}
, 			{
				"patchline" : 				{
					"source" : [ "obj-14", 0 ],
					"destination" : [ "obj-1", 0 ],
					"hidden" : 0,
					"midpoints" : [  ]
				}

			}
, 			{
				"patchline" : 				{
					"source" : [ "obj-14", 1 ],
					"destination" : [ "obj-31", 0 ],
					"hidden" : 0,
					"midpoints" : [  ]
				}

			}
, 			{
				"patchline" : 				{
					"source" : [ "obj-14", 3 ],
					"destination" : [ "obj-13", 0 ],
					"hidden" : 0,
					"midpoints" : [  ]
				}

			}
, 			{
				"patchline" : 				{
					"source" : [ "obj-7", 1 ],
					"destination" : [ "obj-10", 0 ],
					"hidden" : 0,
					"midpoints" : [  ]
				}

			}
, 			{
				"patchline" : 				{
					"source" : [ "obj-6", 1 ],
					"destination" : [ "obj-7", 0 ],
					"hidden" : 0,
					"midpoints" : [  ]
				}

			}
, 			{
				"patchline" : 				{
					"source" : [ "obj-5", 0 ],
					"destination" : [ "obj-20", 0 ],
					"hidden" : 0,
					"midpoints" : [  ]
				}

			}
, 			{
				"patchline" : 				{
					"source" : [ "obj-20", 0 ],
					"destination" : [ "obj-6", 0 ],
					"hidden" : 0,
					"midpoints" : [  ]
				}

			}
, 			{
				"patchline" : 				{
					"source" : [ "obj-8", 1 ],
					"destination" : [ "obj-25", 0 ],
					"hidden" : 0,
					"midpoints" : [  ]
				}

			}
, 			{
				"patchline" : 				{
					"source" : [ "obj-8", 0 ],
					"destination" : [ "obj-19", 0 ],
					"hidden" : 0,
					"midpoints" : [  ]
				}

			}
, 			{
				"patchline" : 				{
					"source" : [ "obj-32", 0 ],
					"destination" : [ "obj-8", 0 ],
					"hidden" : 0,
					"midpoints" : [  ]
				}

			}
, 			{
				"patchline" : 				{
					"source" : [ "obj-6", 0 ],
					"destination" : [ "obj-36", 0 ],
					"hidden" : 0,
					"midpoints" : [  ]
				}

			}
, 			{
				"patchline" : 				{
					"source" : [ "obj-29", 0 ],
					"destination" : [ "obj-5", 0 ],
					"hidden" : 0,
					"midpoints" : [  ]
				}

			}
, 			{
				"patchline" : 				{
					"source" : [ "obj-7", 0 ],
					"destination" : [ "obj-14", 0 ],
					"hidden" : 0,
					"midpoints" : [  ]
				}

			}
 ]
	}

}
