{
	"patcher" : 	{
		"fileversion" : 1,
		"rect" : [ 72.0, 66.0, 58.0, 62.0 ],
		"bgcolor" : [ 1.0, 1.0, 1.0, 0.0 ],
		"bglocked" : 0,
		"defrect" : [ 451.0, 139.0, 1371.0, 759.0 ],
		"openrect" : [ 0.0, 0.0, 0.0, 0.0 ],
		"openinpresentation" : 1,
		"default_fontsize" : 12.0,
		"default_fontface" : 0,
		"default_fontname" : "Arial",
		"gridonopen" : 0,
		"gridsize" : [ 15.0, 15.0 ],
		"gridsnaponopen" : 0,
		"toolbarvisible" : 1,
		"boxanimatetime" : 200,
		"imprint" : 0,
		"enablehscroll" : 1,
		"enablevscroll" : 1,
		"devicewidth" : 0.0,
		"boxes" : [ 			{
				"box" : 				{
					"maxclass" : "message",
					"text" : "#1",
					"numoutlets" : 1,
					"fontsize" : 12.0,
					"patching_rect" : [ 419.0, 139.0, 32.5, 18.0 ],
					"outlettype" : [ "" ],
					"fontname" : "Arial",
					"numinlets" : 2,
					"id" : "obj-11"
				}

			}
, 			{
				"box" : 				{
					"maxclass" : "newobj",
					"text" : "loadbang",
					"numoutlets" : 1,
					"fontsize" : 12.0,
					"patching_rect" : [ 419.0, 115.0, 60.0, 20.0 ],
					"outlettype" : [ "bang" ],
					"fontname" : "Arial",
					"numinlets" : 1,
					"id" : "obj-9",
					"color" : [ 0.0, 0.0, 0.0, 1.0 ]
				}

			}
, 			{
				"box" : 				{
					"maxclass" : "bpatcher",
					"varname" : "row3",
					"numoutlets" : 0,
					"name" : "buttonB.maxpat",
					"patching_rect" : [ 39.0, 323.0, 80.0, 61.0 ],
					"presentation" : 1,
					"args" : [ 4 ],
					"numinlets" : 2,
					"id" : "obj-63",
					"presentation_rect" : [ 3.0, 336.0, 86.0, 73.0 ]
				}

			}
, 			{
				"box" : 				{
					"maxclass" : "bpatcher",
					"varname" : "row2",
					"numoutlets" : 0,
					"name" : "buttonB.maxpat",
					"patching_rect" : [ 38.0, 391.0, 80.0, 61.0 ],
					"presentation" : 1,
					"args" : [ 5 ],
					"numinlets" : 2,
					"id" : "obj-29",
					"presentation_rect" : [ 3.0, 415.0, 86.0, 73.0 ]
				}

			}
, 			{
				"box" : 				{
					"maxclass" : "bpatcher",
					"varname" : "row1",
					"numoutlets" : 0,
					"name" : "buttonB.maxpat",
					"patching_rect" : [ 38.0, 462.0, 80.0, 61.0 ],
					"presentation" : 1,
					"args" : [ 6 ],
					"numinlets" : 2,
					"id" : "obj-20",
					"presentation_rect" : [ 3.0, 494.0, 86.0, 73.0 ]
				}

			}
, 			{
				"box" : 				{
					"maxclass" : "bpatcher",
					"varname" : "row0",
					"numoutlets" : 0,
					"name" : "buttonB.maxpat",
					"patching_rect" : [ 36.0, 532.0, 80.0, 61.0 ],
					"presentation" : 1,
					"args" : [ 7 ],
					"numinlets" : 2,
					"id" : "obj-50",
					"presentation_rect" : [ 3.0, 573.0, 86.0, 73.0 ]
				}

			}
, 			{
				"box" : 				{
					"maxclass" : "message",
					"text" : "set 0",
					"numoutlets" : 1,
					"fontsize" : 12.0,
					"patching_rect" : [ 361.0, 38.0, 37.0, 18.0 ],
					"outlettype" : [ "" ],
					"fontname" : "Arial",
					"numinlets" : 2,
					"id" : "obj-71"
				}

			}
, 			{
				"box" : 				{
					"maxclass" : "newobj",
					"text" : "t l",
					"numoutlets" : 1,
					"fontsize" : 12.0,
					"patching_rect" : [ 361.0, 59.0, 20.0, 20.0 ],
					"outlettype" : [ "" ],
					"fontname" : "Arial",
					"numinlets" : 1,
					"id" : "obj-67"
				}

			}
, 			{
				"box" : 				{
					"maxclass" : "newobj",
					"text" : "r resetAllGridButtons",
					"numoutlets" : 1,
					"fontsize" : 12.0,
					"patching_rect" : [ 361.0, 6.0, 121.0, 20.0 ],
					"outlettype" : [ "" ],
					"fontname" : "Arial",
					"numinlets" : 0,
					"id" : "obj-66"
				}

			}
, 			{
				"box" : 				{
					"maxclass" : "bpatcher",
					"varname" : "row7",
					"numoutlets" : 0,
					"name" : "buttonB.maxpat",
					"patching_rect" : [ 39.0, 16.0, 80.0, 61.0 ],
					"presentation" : 1,
					"args" : [ 0 ],
					"numinlets" : 2,
					"id" : "obj-41",
					"presentation_rect" : [ 3.0, 19.0, 86.0, 73.0 ]
				}

			}
, 			{
				"box" : 				{
					"maxclass" : "bpatcher",
					"varname" : "row6",
					"numoutlets" : 0,
					"name" : "buttonB.maxpat",
					"patching_rect" : [ 38.0, 89.0, 80.0, 61.0 ],
					"presentation" : 1,
					"args" : [ 1 ],
					"numinlets" : 2,
					"id" : "obj-40",
					"presentation_rect" : [ 3.0, 98.0, 86.0, 73.0 ]
				}

			}
, 			{
				"box" : 				{
					"maxclass" : "bpatcher",
					"varname" : "row5",
					"numoutlets" : 0,
					"name" : "buttonB.maxpat",
					"patching_rect" : [ 38.0, 172.0, 80.0, 61.0 ],
					"presentation" : 1,
					"args" : [ 2 ],
					"numinlets" : 2,
					"id" : "obj-39",
					"presentation_rect" : [ 3.0, 177.0, 86.0, 73.0 ]
				}

			}
, 			{
				"box" : 				{
					"maxclass" : "bpatcher",
					"varname" : "row4",
					"numoutlets" : 0,
					"name" : "buttonB.maxpat",
					"patching_rect" : [ 38.0, 256.0, 80.0, 61.0 ],
					"presentation" : 1,
					"args" : [ 3 ],
					"numinlets" : 2,
					"id" : "obj-38",
					"presentation_rect" : [ 3.0, 256.0, 86.0, 73.0 ]
				}

			}
, 			{
				"box" : 				{
					"maxclass" : "newobj",
					"text" : "sel 0",
					"numoutlets" : 2,
					"fontsize" : 12.0,
					"patching_rect" : [ 825.0, 473.0, 36.0, 20.0 ],
					"outlettype" : [ "bang", "" ],
					"fontname" : "Arial",
					"numinlets" : 2,
					"id" : "obj-27"
				}

			}
, 			{
				"box" : 				{
					"maxclass" : "newobj",
					"text" : "gate",
					"numoutlets" : 1,
					"fontsize" : 12.0,
					"patching_rect" : [ 585.0, 447.0, 34.0, 20.0 ],
					"outlettype" : [ "" ],
					"fontname" : "Arial",
					"numinlets" : 2,
					"id" : "obj-26"
				}

			}
, 			{
				"box" : 				{
					"maxclass" : "newobj",
					"text" : "t l l",
					"numoutlets" : 2,
					"fontsize" : 12.0,
					"patching_rect" : [ 615.0, 285.0, 286.5, 20.0 ],
					"outlettype" : [ "", "" ],
					"fontname" : "Arial",
					"numinlets" : 1,
					"id" : "obj-65"
				}

			}
, 			{
				"box" : 				{
					"maxclass" : "newobj",
					"text" : "+ 23",
					"numoutlets" : 1,
					"fontsize" : 12.0,
					"patching_rect" : [ 928.0, 525.0, 34.0, 20.0 ],
					"outlettype" : [ "int" ],
					"fontname" : "Arial",
					"numinlets" : 2,
					"id" : "obj-62"
				}

			}
, 			{
				"box" : 				{
					"maxclass" : "message",
					"text" : "script sendbox blinker_gray presentation_position 7 $1",
					"numoutlets" : 1,
					"fontsize" : 11.595187,
					"patching_rect" : [ 928.0, 550.0, 291.0, 18.0 ],
					"outlettype" : [ "" ],
					"fontname" : "Arial",
					"numinlets" : 2,
					"id" : "obj-61"
				}

			}
, 			{
				"box" : 				{
					"maxclass" : "newobj",
					"text" : "t b b",
					"numoutlets" : 2,
					"fontsize" : 12.0,
					"patching_rect" : [ 600.0, 233.0, 34.0, 20.0 ],
					"outlettype" : [ "bang", "bang" ],
					"fontname" : "Arial",
					"numinlets" : 1,
					"id" : "obj-60"
				}

			}
, 			{
				"box" : 				{
					"maxclass" : "panel",
					"varname" : "blinker_gray",
					"bgcolor" : [ 0.427451, 0.431373, 0.443137, 1.0 ],
					"numoutlets" : 0,
					"patching_rect" : [ 771.0, 598.0, 105.0, 102.0 ],
					"presentation" : 1,
					"rounded" : 3,
					"numinlets" : 1,
					"id" : "obj-59",
					"presentation_rect" : [ 7.0, 576.0, 78.0, 65.0 ]
				}

			}
, 			{
				"box" : 				{
					"maxclass" : "newobj",
					"text" : "gate",
					"numoutlets" : 1,
					"fontsize" : 12.0,
					"patching_rect" : [ 883.0, 473.0, 34.0, 20.0 ],
					"outlettype" : [ "" ],
					"fontname" : "Arial",
					"numinlets" : 2,
					"id" : "obj-58"
				}

			}
, 			{
				"box" : 				{
					"maxclass" : "newobj",
					"text" : "==",
					"numoutlets" : 1,
					"fontsize" : 12.0,
					"patching_rect" : [ 883.0, 447.0, 32.5, 20.0 ],
					"outlettype" : [ "int" ],
					"fontname" : "Arial",
					"numinlets" : 2,
					"id" : "obj-57"
				}

			}
, 			{
				"box" : 				{
					"maxclass" : "newobj",
					"text" : "loadbang",
					"numoutlets" : 1,
					"fontsize" : 12.0,
					"patching_rect" : [ 898.0, 345.0, 60.0, 20.0 ],
					"outlettype" : [ "bang" ],
					"fontname" : "Arial",
					"numinlets" : 1,
					"id" : "obj-55",
					"color" : [ 0.0, 0.0, 0.0, 1.0 ]
				}

			}
, 			{
				"box" : 				{
					"maxclass" : "message",
					"text" : "#1",
					"numoutlets" : 1,
					"fontsize" : 12.0,
					"patching_rect" : [ 898.0, 377.0, 32.5, 18.0 ],
					"outlettype" : [ "" ],
					"fontname" : "Arial",
					"numinlets" : 2,
					"id" : "obj-56"
				}

			}
, 			{
				"box" : 				{
					"maxclass" : "newobj",
					"text" : "zl mth 1",
					"numoutlets" : 2,
					"fontsize" : 12.0,
					"patching_rect" : [ 883.0, 318.0, 53.0, 20.0 ],
					"outlettype" : [ "", "" ],
					"fontname" : "Arial",
					"numinlets" : 2,
					"id" : "obj-54"
				}

			}
, 			{
				"box" : 				{
					"maxclass" : "newobj",
					"text" : "zl mth 0",
					"numoutlets" : 2,
					"fontsize" : 12.0,
					"patching_rect" : [ 615.0, 314.0, 53.0, 20.0 ],
					"outlettype" : [ "", "" ],
					"fontname" : "Arial",
					"numinlets" : 2,
					"id" : "obj-53"
				}

			}
, 			{
				"box" : 				{
					"maxclass" : "message",
					"text" : "script sendbox blinker presentation_position 5 $1",
					"numoutlets" : 1,
					"fontsize" : 11.595187,
					"patching_rect" : [ 883.0, 585.0, 262.0, 18.0 ],
					"outlettype" : [ "" ],
					"fontname" : "Arial",
					"numinlets" : 2,
					"id" : "obj-52"
				}

			}
, 			{
				"box" : 				{
					"maxclass" : "newobj",
					"text" : "thispatcher",
					"numoutlets" : 2,
					"fontsize" : 12.0,
					"patching_rect" : [ 883.0, 567.0, 69.0, 20.0 ],
					"outlettype" : [ "", "" ],
					"fontname" : "Arial",
					"numinlets" : 1,
					"id" : "obj-51",
					"save" : [ "#N", "thispatcher", ";", "#Q", "end", ";" ]
				}

			}
, 			{
				"box" : 				{
					"maxclass" : "newobj",
					"text" : "* 79",
					"numoutlets" : 1,
					"fontsize" : 12.0,
					"patching_rect" : [ 883.0, 498.0, 32.5, 20.0 ],
					"outlettype" : [ "int" ],
					"fontname" : "Arial",
					"numinlets" : 2,
					"id" : "obj-48"
				}

			}
, 			{
				"box" : 				{
					"maxclass" : "newobj",
					"text" : "+ 21",
					"numoutlets" : 1,
					"fontsize" : 12.0,
					"patching_rect" : [ 883.0, 525.0, 34.0, 20.0 ],
					"outlettype" : [ "int" ],
					"fontname" : "Arial",
					"numinlets" : 2,
					"id" : "obj-47"
				}

			}
, 			{
				"box" : 				{
					"maxclass" : "message",
					"text" : "bgcolor 1. 0.99602 0.040816 1.",
					"numoutlets" : 1,
					"fontsize" : 12.0,
					"patching_rect" : [ 617.0, 522.0, 177.0, 18.0 ],
					"outlettype" : [ "" ],
					"fontname" : "Arial",
					"numinlets" : 2,
					"id" : "obj-37"
				}

			}
, 			{
				"box" : 				{
					"maxclass" : "message",
					"text" : "bgcolor 0. 0. 0. 0.",
					"numoutlets" : 1,
					"fontsize" : 12.0,
					"patching_rect" : [ 585.0, 550.0, 103.0, 18.0 ],
					"outlettype" : [ "" ],
					"fontname" : "Arial",
					"numinlets" : 2,
					"id" : "obj-36"
				}

			}
, 			{
				"box" : 				{
					"maxclass" : "newobj",
					"text" : "sel 0 1",
					"numoutlets" : 3,
					"fontsize" : 12.0,
					"patching_rect" : [ 585.0, 488.0, 46.0, 20.0 ],
					"outlettype" : [ "bang", "bang", "" ],
					"fontname" : "Arial",
					"numinlets" : 1,
					"id" : "obj-33"
				}

			}
, 			{
				"box" : 				{
					"maxclass" : "toggle",
					"numoutlets" : 1,
					"patching_rect" : [ 600.0, 354.0, 20.0, 20.0 ],
					"outlettype" : [ "int" ],
					"numinlets" : 1,
					"id" : "obj-32"
				}

			}
, 			{
				"box" : 				{
					"maxclass" : "panel",
					"varname" : "blinker",
					"bgcolor" : [ 0.0, 0.0, 0.0, 0.0 ],
					"numoutlets" : 0,
					"patching_rect" : [ 585.0, 583.0, 128.0, 128.0 ],
					"presentation" : 1,
					"rounded" : 3,
					"numinlets" : 1,
					"id" : "obj-30",
					"presentation_rect" : [ 5.0, 574.0, 82.0, 69.0 ]
				}

			}
, 			{
				"box" : 				{
					"maxclass" : "newobj",
					"text" : "grab 1 selectedButton",
					"numoutlets" : 1,
					"fontsize" : 12.0,
					"patching_rect" : [ 615.0, 258.0, 127.0, 20.0 ],
					"outlettype" : [ "" ],
					"fontname" : "Arial",
					"numinlets" : 1,
					"id" : "obj-35"
				}

			}
, 			{
				"box" : 				{
					"maxclass" : "newobj",
					"text" : "r blinkMetro",
					"numoutlets" : 1,
					"fontsize" : 12.0,
					"patching_rect" : [ 600.0, 205.0, 73.0, 20.0 ],
					"outlettype" : [ "" ],
					"fontname" : "Arial",
					"numinlets" : 0,
					"id" : "obj-1"
				}

			}
, 			{
				"box" : 				{
					"maxclass" : "comment",
					"text" : "1- device\n    - lighting console\n    - media server",
					"linecount" : 3,
					"numoutlets" : 0,
					"fontsize" : 12.0,
					"patching_rect" : [ 792.0, 147.0, 150.0, 48.0 ],
					"fontname" : "Arial",
					"numinlets" : 1,
					"id" : "obj-19"
				}

			}
, 			{
				"box" : 				{
					"maxclass" : "fpic",
					"numoutlets" : 0,
					"patching_rect" : [ 409.0, 286.0, 118.0, 381.0 ],
					"pic" : "./Data/Images/gui/PCS-A.png",
					"presentation" : 1,
					"numinlets" : 1,
					"id" : "obj-14",
					"presentation_rect" : [ 0.0, 0.0, 91.0, 649.0 ]
				}

			}
 ],
		"lines" : [ 			{
				"patchline" : 				{
					"source" : [ "obj-11", 0 ],
					"destination" : [ "obj-38", 1 ],
					"hidden" : 0,
					"midpoints" : [  ]
				}

			}
, 			{
				"patchline" : 				{
					"source" : [ "obj-67", 0 ],
					"destination" : [ "obj-38", 0 ],
					"hidden" : 0,
					"midpoints" : [  ]
				}

			}
, 			{
				"patchline" : 				{
					"source" : [ "obj-11", 0 ],
					"destination" : [ "obj-39", 1 ],
					"hidden" : 0,
					"midpoints" : [  ]
				}

			}
, 			{
				"patchline" : 				{
					"source" : [ "obj-67", 0 ],
					"destination" : [ "obj-39", 0 ],
					"hidden" : 0,
					"midpoints" : [  ]
				}

			}
, 			{
				"patchline" : 				{
					"source" : [ "obj-11", 0 ],
					"destination" : [ "obj-40", 1 ],
					"hidden" : 0,
					"midpoints" : [  ]
				}

			}
, 			{
				"patchline" : 				{
					"source" : [ "obj-67", 0 ],
					"destination" : [ "obj-40", 0 ],
					"hidden" : 0,
					"midpoints" : [  ]
				}

			}
, 			{
				"patchline" : 				{
					"source" : [ "obj-11", 0 ],
					"destination" : [ "obj-41", 1 ],
					"hidden" : 0,
					"midpoints" : [  ]
				}

			}
, 			{
				"patchline" : 				{
					"source" : [ "obj-67", 0 ],
					"destination" : [ "obj-41", 0 ],
					"hidden" : 0,
					"midpoints" : [  ]
				}

			}
, 			{
				"patchline" : 				{
					"source" : [ "obj-11", 0 ],
					"destination" : [ "obj-20", 1 ],
					"hidden" : 0,
					"midpoints" : [  ]
				}

			}
, 			{
				"patchline" : 				{
					"source" : [ "obj-67", 0 ],
					"destination" : [ "obj-20", 0 ],
					"hidden" : 0,
					"midpoints" : [  ]
				}

			}
, 			{
				"patchline" : 				{
					"source" : [ "obj-11", 0 ],
					"destination" : [ "obj-29", 1 ],
					"hidden" : 0,
					"midpoints" : [  ]
				}

			}
, 			{
				"patchline" : 				{
					"source" : [ "obj-67", 0 ],
					"destination" : [ "obj-29", 0 ],
					"hidden" : 0,
					"midpoints" : [  ]
				}

			}
, 			{
				"patchline" : 				{
					"source" : [ "obj-11", 0 ],
					"destination" : [ "obj-63", 1 ],
					"hidden" : 0,
					"midpoints" : [  ]
				}

			}
, 			{
				"patchline" : 				{
					"source" : [ "obj-67", 0 ],
					"destination" : [ "obj-63", 0 ],
					"hidden" : 0,
					"midpoints" : [  ]
				}

			}
, 			{
				"patchline" : 				{
					"source" : [ "obj-54", 0 ],
					"destination" : [ "obj-57", 0 ],
					"hidden" : 0,
					"midpoints" : [  ]
				}

			}
, 			{
				"patchline" : 				{
					"source" : [ "obj-9", 0 ],
					"destination" : [ "obj-11", 0 ],
					"hidden" : 0,
					"midpoints" : [  ]
				}

			}
, 			{
				"patchline" : 				{
					"source" : [ "obj-27", 0 ],
					"destination" : [ "obj-36", 0 ],
					"hidden" : 0,
					"midpoints" : [  ]
				}

			}
, 			{
				"patchline" : 				{
					"source" : [ "obj-57", 0 ],
					"destination" : [ "obj-27", 0 ],
					"hidden" : 0,
					"midpoints" : [  ]
				}

			}
, 			{
				"patchline" : 				{
					"source" : [ "obj-32", 0 ],
					"destination" : [ "obj-26", 1 ],
					"hidden" : 0,
					"midpoints" : [  ]
				}

			}
, 			{
				"patchline" : 				{
					"source" : [ "obj-26", 0 ],
					"destination" : [ "obj-33", 0 ],
					"hidden" : 0,
					"midpoints" : [  ]
				}

			}
, 			{
				"patchline" : 				{
					"source" : [ "obj-57", 0 ],
					"destination" : [ "obj-26", 0 ],
					"hidden" : 0,
					"midpoints" : [  ]
				}

			}
, 			{
				"patchline" : 				{
					"source" : [ "obj-33", 1 ],
					"destination" : [ "obj-37", 0 ],
					"hidden" : 0,
					"midpoints" : [  ]
				}

			}
, 			{
				"patchline" : 				{
					"source" : [ "obj-37", 0 ],
					"destination" : [ "obj-30", 0 ],
					"hidden" : 0,
					"midpoints" : [  ]
				}

			}
, 			{
				"patchline" : 				{
					"source" : [ "obj-33", 0 ],
					"destination" : [ "obj-36", 0 ],
					"hidden" : 0,
					"midpoints" : [  ]
				}

			}
, 			{
				"patchline" : 				{
					"source" : [ "obj-36", 0 ],
					"destination" : [ "obj-30", 0 ],
					"hidden" : 0,
					"midpoints" : [  ]
				}

			}
, 			{
				"patchline" : 				{
					"source" : [ "obj-52", 0 ],
					"destination" : [ "obj-51", 0 ],
					"hidden" : 0,
					"midpoints" : [  ]
				}

			}
, 			{
				"patchline" : 				{
					"source" : [ "obj-48", 0 ],
					"destination" : [ "obj-47", 0 ],
					"hidden" : 0,
					"midpoints" : [  ]
				}

			}
, 			{
				"patchline" : 				{
					"source" : [ "obj-47", 0 ],
					"destination" : [ "obj-52", 0 ],
					"hidden" : 0,
					"midpoints" : [  ]
				}

			}
, 			{
				"patchline" : 				{
					"source" : [ "obj-55", 0 ],
					"destination" : [ "obj-56", 0 ],
					"hidden" : 0,
					"midpoints" : [  ]
				}

			}
, 			{
				"patchline" : 				{
					"source" : [ "obj-57", 0 ],
					"destination" : [ "obj-58", 0 ],
					"hidden" : 0,
					"midpoints" : [  ]
				}

			}
, 			{
				"patchline" : 				{
					"source" : [ "obj-53", 0 ],
					"destination" : [ "obj-58", 1 ],
					"hidden" : 0,
					"midpoints" : [  ]
				}

			}
, 			{
				"patchline" : 				{
					"source" : [ "obj-58", 0 ],
					"destination" : [ "obj-48", 0 ],
					"hidden" : 0,
					"midpoints" : [  ]
				}

			}
, 			{
				"patchline" : 				{
					"source" : [ "obj-1", 0 ],
					"destination" : [ "obj-60", 0 ],
					"hidden" : 0,
					"midpoints" : [  ]
				}

			}
, 			{
				"patchline" : 				{
					"source" : [ "obj-60", 0 ],
					"destination" : [ "obj-32", 0 ],
					"hidden" : 0,
					"midpoints" : [  ]
				}

			}
, 			{
				"patchline" : 				{
					"source" : [ "obj-61", 0 ],
					"destination" : [ "obj-51", 0 ],
					"hidden" : 0,
					"midpoints" : [  ]
				}

			}
, 			{
				"patchline" : 				{
					"source" : [ "obj-62", 0 ],
					"destination" : [ "obj-61", 0 ],
					"hidden" : 0,
					"midpoints" : [  ]
				}

			}
, 			{
				"patchline" : 				{
					"source" : [ "obj-48", 0 ],
					"destination" : [ "obj-62", 0 ],
					"hidden" : 0,
					"midpoints" : [  ]
				}

			}
, 			{
				"patchline" : 				{
					"source" : [ "obj-65", 1 ],
					"destination" : [ "obj-54", 0 ],
					"hidden" : 0,
					"midpoints" : [  ]
				}

			}
, 			{
				"patchline" : 				{
					"source" : [ "obj-65", 0 ],
					"destination" : [ "obj-53", 0 ],
					"hidden" : 0,
					"midpoints" : [  ]
				}

			}
, 			{
				"patchline" : 				{
					"source" : [ "obj-66", 0 ],
					"destination" : [ "obj-71", 0 ],
					"hidden" : 0,
					"midpoints" : [  ]
				}

			}
, 			{
				"patchline" : 				{
					"source" : [ "obj-71", 0 ],
					"destination" : [ "obj-67", 0 ],
					"hidden" : 0,
					"midpoints" : [  ]
				}

			}
, 			{
				"patchline" : 				{
					"source" : [ "obj-56", 0 ],
					"destination" : [ "obj-57", 1 ],
					"hidden" : 0,
					"midpoints" : [  ]
				}

			}
, 			{
				"patchline" : 				{
					"source" : [ "obj-60", 1 ],
					"destination" : [ "obj-35", 0 ],
					"hidden" : 0,
					"midpoints" : [  ]
				}

			}
, 			{
				"patchline" : 				{
					"source" : [ "obj-35", 0 ],
					"destination" : [ "obj-65", 0 ],
					"hidden" : 0,
					"midpoints" : [  ]
				}

			}
, 			{
				"patchline" : 				{
					"source" : [ "obj-67", 0 ],
					"destination" : [ "obj-50", 0 ],
					"hidden" : 0,
					"midpoints" : [  ]
				}

			}
, 			{
				"patchline" : 				{
					"source" : [ "obj-11", 0 ],
					"destination" : [ "obj-50", 1 ],
					"hidden" : 0,
					"midpoints" : [  ]
				}

			}
 ]
	}

}
